<svg width="74" height="72" viewBox="0 0 74 72" fill="none" xmlns="http://www.w3.org/2000/svg">
<path fill-rule="evenodd" clip-rule="evenodd" d="M10.6433 25.5557C9.26731 17.6507 9.62431 17.0297 16.5043 15.3757C19.0913 14.7537 21.5513 14.1907 21.9713 14.1257C22.8543 13.9877 27.7083 24.5787 27.7083 26.6457C27.7083 27.4097 26.3223 29.2737 24.6283 30.7877L21.5473 33.5397L24.8783 38.4567C26.7093 41.1607 30.4493 44.9027 33.1893 46.7737L38.1693 50.1737L40.9253 47.0907C44.2533 43.3647 45.0983 43.3197 52.2543 46.4847C56.6123 48.4117 57.7423 49.3567 57.3423 50.7347C57.0593 51.7097 56.3273 54.4427 55.7153 56.8077C55.1043 59.1737 53.9963 61.3427 53.2553 61.6267C52.5133 61.9117 49.2913 61.6607 46.0943 61.0707C27.8143 57.6907 13.7933 43.6447 10.6433 25.5557Z" fill="#FF4880"/>
<path fill-rule="evenodd" clip-rule="evenodd" d="M45.7083 11.0067C40.6753 13.0667 38.8793 18.5037 41.1873 22.9657C42.4323 25.3747 42.5253 26.4797 41.6253 28.1617C40.5713 30.1307 40.6673 30.2367 42.8453 29.4977C44.1443 29.0567 47.0083 27.9467 49.2083 28.0067C54.7763 28.1577 59.3193 27.3167 61.6923 24.2997C64.2083 21.101 64.6273 16.9257 60.7083 13.0067C57.8493 10.1477 55.3653 9.95375 51.7083 10.0067C49.3163 10.0417 46.8083 10.5567 45.7083 11.0067ZM44.6923 20.4967C44.1333 20.1507 43.9343 19.4497 44.2513 18.9377C45.0013 17.7227 47.7083 17.7307 47.7083 18.9477C47.7083 20.2977 45.8853 21.2337 44.6923 20.4967ZM53.4793 19.1947C52.8613 21.0487 50.7083 21.3557 50.7083 19.5897C50.7083 18.7187 51.4203 18.0067 52.2913 18.0067C53.1623 18.0067 53.6973 18.5407 53.4793 19.1947ZM57.8963 20.7777C57.2423 20.9957 56.7083 20.4607 56.7083 19.5897C56.7083 18.7187 57.4203 18.0067 58.2913 18.0067C60.0573 18.0067 59.7503 20.1597 57.8963 20.7777Z" fill="#4D65F9"/>
</svg>
