<svg width="250" height="175" viewBox="0 0 250 175" fill="none" xmlns="http://www.w3.org/2000/svg">
<path fill-rule="evenodd" clip-rule="evenodd" d="M116.92 0.6744C104.22 2.7324 90.6275 13.7404 84.9375 26.5794C81.1995 35.0084 81.2165 51.2374 84.9695 59.7034C88.8325 68.4174 98.1295 77.9564 106.962 82.2684C113.051 85.2414 116.472 85.9364 124.992 85.9364C137.975 85.9364 147.655 81.7194 156.402 72.2504C164.826 63.1304 168.059 54.9944 168.066 42.8974C168.073 30.4974 163.567 20.3764 154.2 11.7624C143.614 2.0254 131.261 -1.6486 116.92 0.6744ZM29.9825 26.3804C12.1859 32.6554 7.25237 54.3364 20.8346 66.5794C32.5055 77.1014 47.5225 75.9234 56.8215 63.7584C60.1875 59.3564 60.7205 57.3864 60.7205 49.3784C60.7205 41.3624 60.1885 39.4014 56.8055 34.9784C50.1365 26.2534 39.7695 22.9294 29.9825 26.3804ZM206.03 26.3804C188.234 32.6554 183.3 54.3364 196.882 66.5794C208.553 77.1014 223.57 75.9234 232.869 63.7584C236.235 59.3564 236.768 57.3864 236.768 49.3784C236.768 41.3624 236.236 39.4014 232.853 34.9784C226.185 26.2534 215.817 22.9294 206.03 26.3804ZM17.5819 88.9874C10.4185 91.6444 3.03977 98.9544 1.33377 105.084C-0.700528 112.388 -0.351228 125.631 1.99607 130.158C4.74437 135.462 10.4841 137.211 25.1355 137.211H37.3355L38.9665 130.751C42.2425 117.763 50.2365 105.639 59.9485 98.9224C63.0625 96.7694 65.6105 94.4814 65.6105 93.8384C65.6105 93.1964 63.5665 91.5954 61.0705 90.2804C54.7935 86.9804 25.3535 86.1044 17.5819 88.9874ZM193.792 88.9314C184.307 92.4574 183.694 93.8044 189.625 98.0954C200.307 105.826 208.298 117.521 211.589 130.24L213.212 136.514H228.025C241.903 136.514 243.074 136.294 246.557 133.029C250.161 129.652 250.263 129.125 249.81 116.186C249.387 104.072 248.979 102.351 245.428 97.7114C239.103 89.4434 234.811 87.9544 215.81 87.4354C203.882 87.1104 197.528 87.5414 193.792 88.9314ZM85.1535 101.459C76.1405 103.397 69.7045 107.098 62.5355 114.468C54.6635 122.561 51.3165 131.505 50.6355 146.255C49.9845 160.362 51.8905 166.009 59.0765 171.27C62.9255 174.087 64.5165 174.157 124.745 174.157C181.119 174.157 186.86 173.944 190.986 171.693C197.856 167.947 199.742 162.949 199.742 148.486C199.742 132.643 196.435 123.08 187.939 114.357C180.474 106.691 172.542 102.546 162.142 100.875C155.341 99.7824 152.944 100.041 145.866 102.634C134.278 106.88 115.692 106.874 104.083 102.622C94.6755 99.1754 95.5255 99.2284 85.1535 101.459Z" fill="black"/>
</svg>
