<svg width="250" height="250" viewBox="0 0 250 250" fill="none" xmlns="http://www.w3.org/2000/svg">
<path fill-rule="evenodd" clip-rule="evenodd" d="M39.5 2.1093C36.25 3.9866 36 10.3783 36 91.3479V178.562H21.868C6.028 178.562 0 180.788 0 186.638C0 190.758 45.924 246.801 50.83 248.669C52.36 249.25 54.984 248.673 56.662 247.383C61.746 243.477 106.002 189.796 105.97 187.575C105.878 181.37 101.774 179.574 86.084 178.865L70 178.141V92.1729C70 16.6649 69.618 5.8241 66.858 3.0837C63.25 -0.4942 45.124 -1.1411 39.5 2.1093ZM181.288 2.4883C177.76 5.0482 144 92.8039 144 99.4159C144 110.209 169.958 109.836 173.77 98.9879L175.792 93.2329H196.858C217.718 93.2329 217.936 93.2819 219.192 98.2449C220.79 104.564 225.558 107.124 235.726 107.124C243.126 107.124 250 103.325 250 99.2359C250 94.2729 215.218 4.5323 212.486 2.4467C208.244 -0.789901 185.766 -0.760098 181.288 2.4883ZM194.97 38.1659C185.806 63.3179 185.818 63.4669 197 63.4669C201.95 63.4669 206 62.7469 206 61.8679C206 59.1979 197.696 35.6849 196.754 35.6849C196.27 35.6849 195.468 36.8029 194.97 38.1659ZM156.446 145.932C152.718 148.522 152 150.885 152 160.571C152 175.675 154.138 177.31 175.536 178.562L192.482 179.554L177.724 196.421C151.666 226.205 152 225.701 152 235.157C152 249.169 154.498 250 196.576 250C217.352 250 233.88 249.141 236.132 247.946C239.384 246.218 240 243.706 240 232.141C240 215.243 238.71 214.281 216.09 214.281H199.916L219.958 191.413L240 168.543V157.748C240 149.104 239.228 146.542 236.132 144.897C233.88 143.702 217.352 142.843 196.576 142.843C167.514 142.843 160.064 143.416 156.446 145.932Z" fill="black"/>
</svg>
