<svg width="250" height="125" viewBox="0 0 250 125" fill="none" xmlns="http://www.w3.org/2000/svg">
<path fill-rule="evenodd" clip-rule="evenodd" d="M52.215 1.02789C26.893 4.85489 5.11234 26.9869 0.755435 53.3179C-4.69417 86.2569 20.022 119.923 52.916 124.366C71.185 126.833 89.007 122.029 101.585 111.245L107.367 106.289H125.911H144.456L150.068 111.367C161.629 121.828 179.452 126.704 197.755 124.411C217.478 121.939 235.343 108.742 244.736 89.7059C249.9 79.2379 250 78.7339 250 62.8089C250 47.5419 249.74 46.0369 245.637 37.4479C237.966 21.3939 225.942 10.1949 209.321 3.62789L200.904 0.302882L130.768 0.0288956C92.193 -0.121104 56.844 0.327889 52.215 1.02789ZM53.911 28.4899C53.364 29.0379 52.916 34.7299 52.916 41.1399V52.7919L40.642 53.1979L28.368 53.6039V62.7359V71.8679L40.589 72.2729L52.808 72.6789L53.213 84.9169L53.617 97.1569H62.735H71.853L72.257 84.9169L72.662 72.6789L84.882 72.2729L97.102 71.8679V62.7359V53.6039L84.882 53.1999L72.662 52.7939L72.257 40.5549L71.853 28.3159L63.379 27.9049C58.718 27.6789 54.458 27.9419 53.911 28.4899ZM196.556 32.3899C192.485 36.4669 191.787 38.1329 191.787 43.7699C191.787 49.4059 192.485 51.0719 196.556 55.1499C200.238 58.8369 202.492 59.9259 206.445 59.9259C213.208 59.9259 219.296 56.6279 221.921 51.5429C227.907 39.9509 219.925 27.6129 206.445 27.6129C202.492 27.6129 200.238 28.7019 196.556 32.3899ZM171.307 70.3229C167.236 74.3999 166.537 76.0659 166.537 81.7029C166.537 87.3389 167.236 89.0049 171.307 93.0819C174.989 96.7699 177.243 97.8589 181.196 97.8589C187.959 97.8589 194.046 94.5599 196.672 89.4759C202.658 77.8839 194.676 65.5459 181.196 65.5459C177.243 65.5459 174.989 66.6349 171.307 70.3229Z" fill="black"/>
</svg>
