<svg width="250" height="289" viewBox="0 0 250 289" fill="none" xmlns="http://www.w3.org/2000/svg">
<path fill-rule="evenodd" clip-rule="evenodd" d="M117.137 0.883918C100.602 5.20152 60.5852 21.7658 57.3492 25.6315C54.0242 29.6021 53.7622 33.8653 54.3412 74.483C54.9372 116.124 55.2732 119.59 59.5822 128.391C66.9682 143.474 78.8282 155.457 93.6402 162.793C105.775 168.805 108.719 169.424 125.115 169.424C140.731 169.424 144.712 168.678 154.232 163.959C160.298 160.953 168.776 155.051 173.075 150.844C192.782 131.554 196.341 118.914 196.341 68.235C196.341 22.7262 197.891 25.2401 161.25 11.3188C131.73 0.103116 125.639 -1.33748 117.137 0.883918ZM116.134 28.0667C116.134 34.414 115.583 35.0536 109.617 35.633C103.455 36.23 103.101 36.704 103.101 44.334C103.101 51.965 103.455 52.439 109.617 53.036C115.583 53.615 116.134 54.255 116.134 60.602C116.134 67.347 116.353 67.537 124.155 67.537C131.957 67.537 132.175 67.349 132.175 60.596C132.175 54.035 132.584 53.623 139.695 53.03C147.028 52.421 147.214 52.203 147.214 44.334C147.214 36.466 147.028 36.248 139.695 35.639C132.584 35.0455 132.175 34.634 132.175 28.0728C132.175 21.32 131.957 21.1323 124.155 21.1323C116.353 21.1323 116.134 21.322 116.134 28.0667ZM78.7982 100.976C80.4162 114.833 85.6582 125.522 94.7892 133.59C104.181 141.886 114.029 144.81 129.294 143.831C139.603 143.172 143.709 141.814 150.651 136.774C161.988 128.544 170.274 112.841 170.274 99.588V89.73H123.878H77.4852L78.7982 100.976ZM151.401 208.571L124.173 235.968L97.2682 208.951L70.3622 181.935L60.3202 183.132C46.9062 184.73 32.9922 192.167 21.3262 203.973C7.63291 217.828 1.34871 231.84 0.302009 250.856C-0.451891 264.517 -0.0127907 267.059 4.16201 273.221C6.75271 277.044 12.0262 282.038 15.8822 284.317C22.7077 288.353 25.6072 288.462 125.306 288.462H227.715L235.117 283.418C245.934 276.045 251.324 263.718 249.722 250.006C247.54 231.328 241.178 217.677 228.722 204.954C216.084 192.041 203.647 185.155 188.665 182.773L178.627 181.177L151.401 208.571Z" fill="black"/>
</svg>
